<?xml version="1.0" standalone="no"?>
<!DOCTYPE svg PUBLIC "-//W3C//DTD SVG 20010904//EN"
 "http://www.w3.org/TR/2001/REC-SVG-20010904/DTD/svg10.dtd">
<svg version="1.0" xmlns="http://www.w3.org/2000/svg"
 width="98.000000pt" height="98.000000pt" viewBox="0 0 98.000000 98.000000"
 preserveAspectRatio="xMidYMid meet">
<metadata>
Created by potrace 1.14, written by Peter Selinger 2001-2017
</metadata>
<g transform="translate(0.000000,98.000000) scale(0.100000,-0.100000)"
fill="#000000" stroke="none">
<path d="M318 873 c-22 -9 -43 -28 -56 -51 -49 -89 -179 -470 -188 -555 -4
-39 -1 -63 14 -98 19 -43 72 -99 93 -99 6 0 7 -6 3 -12 -4 -7 -3 -10 1 -5 5 4
19 0 31 -8 15 -10 25 -11 29 -4 5 6 11 7 18 0 18 -14 106 -20 111 -7 3 7 5 7
5 -1 1 -7 8 -10 18 -6 12 5 14 3 8 -8 -8 -12 -6 -12 8 0 9 7 28 11 42 9 14 -3
25 -1 25 4 0 5 5 6 12 2 14 -9 78 -11 78 -3 0 8 45 3 61 -6 6 -4 15 -1 20 6 7
12 9 11 9 -1 0 -13 1 -13 10 0 8 12 11 13 19 1 5 -7 11 -9 14 -4 3 4 23 8 44
7 21 -1 43 2 50 8 7 5 16 7 22 4 5 -3 11 -2 13 3 1 5 10 11 18 13 31 6 88 82
70 93 -7 4 -7 12 0 25 11 20 5 77 -12 119 -10 23 -14 38 -22 76 -1 6 -5 16 -9
23 -5 7 -11 24 -13 39 -3 15 -8 31 -12 37 -4 6 -7 13 -8 16 0 3 -4 13 -7 23
-4 9 -10 25 -14 35 -3 9 -5 23 -4 30 1 6 -4 12 -10 12 -7 0 -9 3 -6 7 4 3 3
11 -2 17 -5 6 -14 29 -21 51 -7 22 -17 46 -23 53 -5 6 -6 12 -2 12 4 0 1 7 -6
16 -7 9 -14 23 -15 32 -4 26 -38 65 -75 83 -47 25 -289 33 -341 12z"/>
</g>
</svg>
